# xmcd CD database file
#
# Track frame offsets:
#	150
#	12402
#	29107
#	40225
#	58197
#	77860
#	90607
#	105920
#	128235
#	138955
#	153067
#	165335
#
# Disc length: 2403 seconds
#
# Revision: 0
# Processed by: cddbd v1.5.2PL0 Copyright (c) Steve Scherf et al.
# Submitted via: CDex 1.72
#
DISCID=9009610c
DTITLE=Blue Willow [CDN-95-Greasy Talk-Blues) - Greasy Talk
DYEAR=1989
DGENRE=Blues
TTITLE0=Always Come Back To You
TTITLE1=Greasy Talk
TTITLE2=No Time No Money
TTITLE3=Letting Go
TTITLE4=I Can Do Anything
TTITLE5=Weasel Boy
TTITLE6=Spend Money
TTITLE7=It Would Be Easy
TTITLE8=Hop Saucin
TTITLE9=Don't Rain On My Blues
TTITLE10=Lighten Up
TTITLE11=No No No More
EXTD=YEAR: 1989
EXTT0=
EXTT1=
EXTT2=
EXTT3=
EXTT4=
EXTT5=
EXTT6=
EXTT7=
EXTT8=
EXTT9=
EXTT10=
EXTT11=
PLAYORDER=
